<svg width="24" height="30" viewBox="0 0 24 30" fill="none" xmlns="http://www.w3.org/2000/svg">
<path d="M5.46949 0.665913C5.57154 0.543464 5.7348 0.482238 5.89807 0.502647H23.4083C23.5716 0.502647 23.7144 0.563872 23.8369 0.686321C23.9389 0.788362 24.0001 0.931219 24.0001 1.07408C24.0001 1.21693 23.9389 1.35979 23.8369 1.46183L18.6532 6.17612C18.5511 6.27817 18.4083 6.33939 18.2654 6.3598H0.0205078L5.46949 0.665913Z" fill="white"/>
<path d="M5.83684 23.2986C5.69398 23.2986 5.55113 23.3598 5.44909 23.4619L0.183774 28.1762C0.081733 28.2782 0.0205078 28.4211 0.0205078 28.5639C0.0205078 28.7068 0.081733 28.8496 0.183774 28.9517C0.285815 29.0741 0.449082 29.1353 0.612347 29.1353H18.1022C18.245 29.1353 18.3879 29.0741 18.4899 28.9517L24.0001 23.2782L5.83684 23.2986Z" fill="white"/>
<path d="M0 11.8904H18.1225C18.2653 11.8904 18.4082 11.9517 18.5102 12.0537L23.9796 17.7884H5.85715C5.71429 17.7884 5.57143 17.7272 5.46939 17.6251L0 11.8904Z" fill="white"/>
<path opacity="0.74" d="M23.98 17.7884H18.082V23.2986H23.98V17.7884Z" fill="white"/>
<path opacity="0.74" d="M5.89797 6.40063H0V11.9108H5.89797V6.40063Z" fill="white"/>
</svg>
