<svg width="28" height="20" viewBox="0 0 28 20" fill="none" xmlns="http://www.w3.org/2000/svg">
<path d="M14.3505 20C14.3505 20 14.2236 20 14.139 20L11.3478 19.3965C10.7134 19.2355 10.2059 18.793 9.99446 18.1894L8.51426 13.6027L7.58384 14.2867C7.2878 14.4879 6.90718 14.5281 6.56884 14.3672C6.23051 14.2062 6.01905 13.8843 6.01905 13.5625V10.7863C5.55385 10.5851 5.00405 10.3437 4.49656 10.0621C3.90447 9.69994 3.48156 9.45853 3.10093 9.13665C2.46656 8.65384 2.00135 8.13079 1.57844 7.52727C1.32469 7.12492 1.02864 6.72258 0.90177 6.23976C0.732604 5.71671 0.605729 5.31437 0.563437 4.91202C0.394271 3.58428 0.563437 2.25653 1.07094 1.08973C1.11323 0.969026 1.19781 0.848322 1.2401 0.727619C1.49385 0.285038 1.95906 -0.0368391 2.33968 0.00339547C2.72031 0.0436301 3.05864 0.325272 3.14322 0.647149C3.22781 0.808088 3.22781 0.928792 3.2701 1.0495C3.39697 1.77372 3.69302 2.41747 4.07364 3.02099C4.32739 3.3831 4.58114 3.66475 4.87718 3.90615C5.2578 4.1878 5.63843 4.38897 6.06134 4.54991C6.56884 4.71085 7.07634 4.79132 7.62613 4.79132H7.87988C8.13363 4.79132 8.34509 4.79132 8.59884 4.79132C8.85259 4.79132 9.06405 4.75108 9.3178 4.71085H9.74071L14.0545 3.54404C14.2236 3.50381 14.3928 3.50381 14.562 3.54404L19.4678 4.79132C19.4678 4.79132 19.8907 4.79132 20.1444 4.79132H20.3982C20.948 4.79132 21.4555 4.71085 21.963 4.54991C22.3859 4.38897 22.7665 4.1878 23.1471 3.90615C23.4432 3.66475 23.6969 3.3831 23.9507 3.02099C24.3313 2.41747 24.6274 1.77372 24.7542 1.0495C24.7542 1.00926 24.8388 0.767853 24.8388 0.727619C24.9657 0.405742 25.304 0.0838647 25.6424 0.0436301C26.0653 0.00339547 26.4882 0.164334 26.6574 0.526445L26.9111 1.0495C27.4186 2.25653 27.6301 3.54404 27.4186 4.87178C27.3763 5.27413 27.2494 5.67648 27.1226 6.07882C26.9111 6.72258 26.6574 7.12492 26.4036 7.4468C25.9807 8.09055 25.4732 8.6136 24.8811 9.09642C24.4582 9.4183 24.0353 9.69994 23.6124 9.94135C23.2317 10.1828 22.8511 10.3839 22.5128 10.5046V13.5222C22.5128 13.8843 22.3013 14.166 21.963 14.3269C21.6247 14.4879 21.244 14.4476 20.948 14.2465L20.0599 13.6027L18.5797 18.1492C18.3682 18.7527 17.8607 19.1953 17.2263 19.3562L14.4351 19.9598C14.4351 19.9598 14.3082 19.9598 14.2236 19.9598L14.3505 20ZM7.62613 6.56164C6.86488 6.56164 6.14593 6.44093 5.42697 6.19953C4.7926 5.99835 4.20051 5.67648 3.65072 5.2339C3.18552 4.87178 2.80489 4.46944 2.46656 3.94639C2.46656 3.94639 2.42427 3.86592 2.38198 3.82568C2.38198 4.06709 2.38198 4.3085 2.42427 4.59014C2.42427 4.87178 2.55114 5.19366 2.63573 5.4753C2.7626 5.87765 2.93177 6.11906 3.10093 6.4007C3.43927 6.88352 3.7776 7.28586 4.24281 7.64797C4.58114 7.92962 4.96176 8.13079 5.34239 8.3722C5.97676 8.77454 6.52655 8.97572 7.03405 9.17689C7.37238 9.29759 7.87988 9.74017 7.87988 10.1023V11.6714L8.34509 11.3093C8.51426 11.1886 8.72571 11.1082 8.93717 11.1082C9.02176 11.1082 9.14863 11.1082 9.23321 11.1484C9.52926 11.2289 9.78301 11.4703 9.86759 11.7519L11.7284 17.5859L14.2659 18.109L16.8457 17.5457L18.6642 11.7921C18.7488 11.5105 19.0026 11.2691 19.2986 11.1886C19.5947 11.1082 19.933 11.1886 20.1867 11.3496L20.6097 11.6714V9.90111C20.6097 9.539 20.8211 9.21712 21.2017 9.05618C21.6247 8.89525 22.0476 8.69407 22.4282 8.45267C22.9357 8.13079 23.3163 7.88938 23.6546 7.64797C24.1199 7.28586 24.5005 6.88352 24.7542 6.48117C24.9657 6.15929 25.1349 5.87765 25.2194 5.63624C25.3463 5.19366 25.4732 4.91202 25.5155 4.63038C25.5155 4.38897 25.5578 4.10733 25.5578 3.86592C25.5578 3.86592 25.5155 3.94639 25.4732 3.98662C25.1349 4.50967 24.7119 4.95225 24.289 5.27413C23.7392 5.67648 23.1471 5.99835 22.5128 6.23976C21.8361 6.48117 21.0749 6.56164 20.3136 6.60187H20.0599C19.7638 6.60187 19.4678 6.60187 19.214 6.60187C19.1294 6.60187 18.918 6.60187 18.8757 6.60187L14.2236 5.39483L10.1213 6.44093C10.1213 6.44093 10.0368 6.44093 9.99446 6.44093L9.69842 6.48117C9.27551 6.5214 8.97946 6.56164 8.68342 6.60187C8.38738 6.60187 8.13363 6.60187 7.83759 6.60187" fill="#CCCCCC"/>
</svg>
