<?xml version="1.0" encoding="UTF-8"?>
<!DOCTYPE svg PUBLIC "-//W3C//DTD SVG 1.1//EN" "http://www.w3.org/Graphics/SVG/1.1/DTD/svg11.dtd">
<!-- Creator: CorelDRAW (Evaluation Version) -->
<svg xmlns="http://www.w3.org/2000/svg" xml:space="preserve" width="210mm" height="297mm" version="1.1" style="shape-rendering:geometricPrecision; text-rendering:geometricPrecision; image-rendering:optimizeQuality; fill-rule:evenodd; clip-rule:evenodd"
viewBox="0 0 21000 29700"
 xmlns:xlink="http://www.w3.org/1999/xlink"
 xmlns:xodm="http://www.corel.com/coreldraw/odm/2003">
 <defs>
  <style type="text/css">
   <![CDATA[
    .fil0 {fill:#CC4141}
   ]]>
  </style>
 </defs>
 <g id="Layer_x0020_1">
  <metadata id="CorelCorpID_0Corel-Layer"/>
  <path id="Union" class="fil0" d="M9379.31 12133.39c-33.48,4.88 -66.96,9.57 -100.39,14.2 -9.08,1.28 -18.2,2.52 -27.27,3.8 -72.88,10.35 -145.95,20.36 -219.37,23.42 -72.93,3.4 -146.1,2.81 -219.22,2.17 0,0 -0.05,0 -0.05,0 -22.49,-0.2 -45.02,-0.4 -67.51,-0.49 -174,-0.89 -345,-26.88 -511.96,-84.67 -146.74,-50.69 -280.81,-126.03 -405.02,-227.7 -107.59,-88.31 -195.99,-194.37 -269.96,-310 -127.46,-199.89 -213.35,-420.84 -256.99,-657.92 -3.65,-18.93 -10.35,-37.27 -17.06,-55.66 -3.3,-9.18 -6.66,-18.35 -9.61,-27.57 -3.7,-0.84 -7.7,-1.43 -11.69,-2.07 -6.12,12.77 -12.38,25.49 -18.64,38.17 0,0 0,0 0,0 -15.04,30.37 -29.98,60.74 -42.9,92.05 -127.7,307.59 -166.07,632.87 -125.29,969.1 11.84,100.69 42.75,200.24 73.32,298.66 0,0 0,0 0,0 4.29,13.76 8.53,27.47 12.77,41.17 32.15,106.11 90.29,197.83 149.11,290.67 3.01,4.79 6.07,9.52 9.07,14.3 99.11,156.16 220.61,287.12 357.14,401.17 101.92,84.81 213.7,156.65 324.84,228.1 0.05,0.05 0.15,0.1 0.2,0.15 12.37,7.94 24.8,15.92 37.13,23.86 145.95,94.63 302.99,164.54 461.96,229.04 21.75,8.82 43.54,17.45 65.39,25.98 0.49,325.14 1.03,650.28 1.52,975.41 182.25,-141.07 364.49,-282.09 546.73,-423.16 176.82,577.94 353.69,1155.93 530.5,1733.87 13.66,44.57 50.05,78.5 95.51,88.95 276.33,63.65 552.65,127.26 828.97,190.92 276.12,-63.66 552.2,-127.27 828.32,-190.92 45.42,-10.45 81.8,-44.38 95.41,-88.95 176.13,-575.67 352.31,-1151.39 528.44,-1727.06 179.23,138.8 358.42,277.55 537.65,416.35 0.49,-345.6 1.04,-691.2 1.53,-1036.79 129.68,-55.03 256.75,-116.03 376.51,-193.64 4.98,-3.15 9.82,-6.31 14.75,-9.46 7.59,-4.89 15.14,-9.72 22.58,-14.55 111.14,-71.45 222.97,-143.29 324.84,-228.1 136.58,-114.05 258.08,-245.01 357.19,-401.17 3.01,-4.78 6.01,-9.51 9.02,-14.3 58.83,-92.84 117.01,-184.56 149.11,-290.67 4.19,-13.66 8.48,-27.31 12.67,-41.02 0.05,-0.05 0.05,-0.05 0.1,-0.1 0,0 0,-0.05 0,-0.05 30.57,-98.42 61.49,-197.97 73.32,-298.66 40.88,-336.23 2.51,-661.51 -125.24,-969.1 -12.92,-31.31 -27.91,-61.68 -42.9,-92.05 -6.26,-12.68 -12.52,-25.4 -18.64,-38.17 0,0 0,0 0,0 -4.04,0.64 -7.99,1.23 -11.64,2.07 -3,9.22 -6.41,18.39 -9.66,27.57 0,0 0,0 0,0 0,0 0,0 0,0 -6.75,18.39 -13.41,36.73 -17.06,55.66 -43.74,237.08 -129.58,458.03 -257.04,657.92 -73.96,115.63 -162.27,221.69 -269.91,310 -124.21,101.67 -258.33,177.01 -405.07,227.7 -167,57.79 -337.91,83.78 -511.91,84.67 -22.59,0.09 -45.02,0.29 -67.6,0.49 0,0 0,0 0,0 0,0 0,0 0,0 -73.08,0.64 -146.25,1.23 -219.18,-2.17 -12.92,-0.54 -25.84,-1.28 -38.75,-2.22 -445.6,-119.57 -891.25,-239.19 -1336.84,-358.76 -397.08,106.5 -794.15,213.06 -1191.23,319.56zm-706.81 2093.59c126.47,-97.88 252.94,-195.76 379.4,-293.65l119.06 -92.16 44.05 143.97c176.83,577.96 353.66,1155.92 530.5,1733.87 2.77,9.06 10.17,15.91 19.4,18.03 268.54,61.84 537.08,123.68 805.62,185.54 268.32,-61.86 536.65,-123.7 804.97,-185.53 9.21,-2.13 16.56,-9 19.32,-18.03 176.11,-575.7 352.3,-1151.38 528.44,-1727.07l44.06 -144 119.07 92.2c123.42,95.59 246.85,191.16 370.28,286.74 0.4,-275.03 0.83,-550.06 1.22,-825.1l0.1 -68.74 63.27 -26.85c124.56,-52.85 246.86,-111.55 360.62,-185.2 5.01,-3.25 10.05,-6.44 15.07,-9.67 7.51,-4.82 15.01,-9.68 22.52,-14.51 107.5,-69.15 216.16,-138.5 314.49,-220.5 130.6,-108.92 244.69,-233.14 335.99,-377.02 3,-4.74 5.97,-9.49 8.97,-14.23 52.78,-83.33 108.6,-170 137.44,-265.18 4.17,-13.77 8.53,-27.49 12.74,-41.26l7.58 -24.8 0.27 -0.27c25.83,-83.44 51.35,-169.34 61.78,-255.8 31.98,-265.07 12.24,-528.26 -67.95,-779.95 -50.96,173.42 -125.23,338.62 -223.32,492.27 -80.15,125.56 -176.16,239.84 -291.65,334.48 -131.2,107.5 -276.62,190.1 -437,245.55 -176.35,60.97 -359.1,89.45 -545.38,90.38 -22.4,0.11 -44.81,0.29 -67.21,0.49 -74.97,0.65 -149.94,1.16 -224.86,-2.28 -13.85,-0.64 -27.7,-1.38 -41.53,-2.38l-9.86 -0.72 -9.54 -2.56c-436.64,-117.17 -873.26,-234.36 -1309.9,-351.53 -388.1,104.09 -776.18,208.24 -1164.28,312.33l-5.9 1.58 -6.04 0.88c-33.67,4.91 -67.37,9.61 -101.07,14.3 -8.99,1.25 -17.99,2.48 -26.98,3.76 -76.19,10.81 -152.44,20.95 -229.39,24.35 -74.87,3.3 -149.8,2.92 -224.72,2.27 -22.39,-0.2 -44.78,-0.38 -67.17,-0.49 -186.27,-0.93 -369.1,-29.4 -545.43,-90.38 -160.38,-55.46 -305.77,-138.04 -436.95,-245.55 -115.47,-94.64 -211.55,-208.93 -291.7,-334.48 -98.07,-153.61 -172.35,-318.78 -223.29,-492.16 -80.14,251.66 -99.9,514.83 -67.98,779.86 11.44,94.93 41.09,189.17 69.39,280.24 4.33,13.93 8.72,27.84 12.96,41.81 28.92,95.19 84.66,181.87 137.46,265.25 3.01,4.74 6.02,9.48 9.03,14.22 91.28,143.87 205.34,268.11 335.93,377.02 98.31,81.99 206.95,151.37 314.47,220.49l9.42 6.06c9.42,6.03 18.84,12.07 28.23,18.15 139.21,90.22 291.18,157.75 444.5,219.95 21.31,8.64 42.69,17.11 64.11,25.47l66.07 25.79 0.11 70.93c0.38,254.61 0.8,509.21 1.19,763.82z"/>
 </g>
</svg>
