<svg width="16" height="15" viewBox="0 0 16 15" fill="none" xmlns="http://www.w3.org/2000/svg">
<path d="M8 14.75C5.48438 14.75 3.1875 13.4375 1.92969 11.25C0.671875 9.08984 0.671875 6.4375 1.92969 4.25C3.1875 2.08984 5.48438 0.75 8 0.75C10.4883 0.75 12.7852 2.08984 14.043 4.25C15.3008 6.4375 15.3008 9.08984 14.043 11.25C12.7852 13.4375 10.4883 14.75 8 14.75ZM4.5 6V9.5C4.5 9.99219 4.88281 10.375 5.375 10.375H8.875C9.33984 10.375 9.75 9.99219 9.75 9.5V6C9.75 5.53516 9.33984 5.125 8.875 5.125H5.375C4.88281 5.125 4.5 5.53516 4.5 6ZM11.8281 9.44531C11.8828 9.5 11.9648 9.5 12.0195 9.5C12.2109 9.5 12.375 9.36328 12.375 9.17188V6.35547C12.375 6.16406 12.2109 6 12.0195 6C11.9648 6 11.8828 6.02734 11.8281 6.08203L10.625 6.875V8.625L11.8281 9.44531Z" fill="#FDFDFD"/>
</svg>
