<svg width="12" height="12" viewBox="0 0 12 12" fill="none"
    xmlns="http://www.w3.org/2000/svg">
    <rect width="12" height="12" fill="#F5F5F5"/>
    <path d="M-4284 -1945C-4284 -1946.1 -4283.1 -1947 -4282 -1947H10272C10273.1 -1947 10274 -1946.1 10274 -1945V6101C10274 6102.1 10273.1 6103 10272 6103H-4282C-4283.1 6103 -4284 6102.1 -4284 6101V-1945Z" fill="white"/>
    <path d="M-4282 -1946H10272V-1948H-4282V-1946ZM10273 -1945V6101H10275V-1945H10273ZM10272 6102H-4282V6104H10272V6102ZM-4283 6101V-1945H-4285V6101H-4283ZM-4282 6102C-4282.55 6102 -4283 6101.55 -4283 6101H-4285C-4285 6102.66 -4283.66 6104 -4282 6104V6102ZM10273 6101C10273 6101.55 10272.6 6102 10272 6102V6104C10273.7 6104 10275 6102.66 10275 6101H10273ZM10272 -1946C10272.6 -1946 10273 -1945.55 10273 -1945H10275C10275 -1946.66 10273.7 -1948 10272 -1948V-1946ZM-4282 -1948C-4283.66 -1948 -4285 -1946.66 -4285 -1945H-4283C-4283 -1945.55 -4282.55 -1946 -4282 -1946V-1948Z" fill="black" fill-opacity="0.1"/>
    <g clip-path="url(#clip0_226_536)">
        <rect width="1728" height="1000" transform="translate(-486 -495)" fill="#1B1B1B"/>
        <g clip-path="url(#clip1_226_536)">
            <rect width="1728" height="1244" transform="translate(-486 -495)" fill="#05010D"/>
            <g opacity="0.64">
                <g filter="url(#filter0_f_226_536)">
                    <path d="M794 112.107C794 290.709 648.171 425.773 366.312 425.773C122.286 432.865 -53.0093 272.117 -61 135.683C-61 -42.9189 46.3744 -213.908 366.312 -221C786.866 -221 794 -11.0823 794 112.107Z" fill="url(#paint0_linear_226_536)"/>
                    <path d="M794 112.107C794 290.709 648.171 425.773 366.312 425.773C122.286 432.865 -53.0093 272.117 -61 135.683C-61 -42.9189 46.3744 -213.908 366.312 -221C786.866 -221 794 -11.0823 794 112.107Z" fill="black" fill-opacity="0.1"/>
                </g>
            </g>
        </g>
        <rect x="-126" y="-190" width="1008" height="478" rx="20" fill="#1F1F1F"/>
        <rect x="-125.5" y="-189.5" width="1007" height="477" rx="19.5" stroke="#363636" stroke-opacity="0.4"/>
        <g clip-path="url(#clip2_226_536)">
            <rect x="-94" y="-80" width="304" height="320" rx="16" fill="#333333"/>
            <path d="M-52.5739 4H-53.8068C-53.8797 3.64536 -54.0073 3.33381 -54.1896 3.06534C-54.3686 2.79688 -54.5874 2.5715 -54.8459 2.3892C-55.1011 2.2036 -55.3845 2.06439 -55.696 1.97159C-56.0076 1.87879 -56.3324 1.83239 -56.6705 1.83239C-57.2869 1.83239 -57.8454 1.98816 -58.3459 2.29972C-58.843 2.61127 -59.2391 3.07031 -59.5341 3.67685C-59.8258 4.28338 -59.9716 5.02746 -59.9716 5.90909C-59.9716 6.79072 -59.8258 7.5348 -59.5341 8.14134C-59.2391 8.74787 -58.843 9.20691 -58.3459 9.51847C-57.8454 9.83002 -57.2869 9.9858 -56.6705 9.9858C-56.3324 9.9858 -56.0076 9.93939 -55.696 9.84659C-55.3845 9.75379 -55.1011 9.61624 -54.8459 9.43395C-54.5874 9.24834 -54.3686 9.02131 -54.1896 8.75284C-54.0073 8.48106 -53.8797 8.16951 -53.8068 7.81818H-52.5739C-52.6667 8.33854 -52.8357 8.80421 -53.081 9.2152C-53.3262 9.62618 -53.6312 9.97585 -53.9957 10.2642C-54.3603 10.5492 -54.7696 10.7663 -55.2237 10.9155C-55.6745 11.0646 -56.1567 11.1392 -56.6705 11.1392C-57.5388 11.1392 -58.3111 10.9271 -58.9872 10.5028C-59.6634 10.0786 -60.1953 9.47538 -60.5831 8.69318C-60.9709 7.91098 -61.1648 6.98295 -61.1648 5.90909C-61.1648 4.83523 -60.9709 3.9072 -60.5831 3.125C-60.1953 2.3428 -59.6634 1.73958 -58.9872 1.31534C-58.3111 0.891098 -57.5388 0.678977 -56.6705 0.678977C-56.1567 0.678977 -55.6745 0.753551 -55.2237 0.902699C-54.7696 1.05185 -54.3603 1.2706 -53.9957 1.55895C-53.6312 1.84399 -53.3262 2.192 -53.081 2.60298C-52.8357 3.01065 -52.6667 3.47633 -52.5739 4ZM-49.5673 0.818182V11H-50.7406V0.818182H-49.5673ZM-47.4183 11V3.36364H-46.245V11H-47.4183ZM-46.8217 2.09091C-47.0504 2.09091 -47.2476 2.01302 -47.4134 1.85724C-47.5758 1.70147 -47.657 1.5142 -47.657 1.29545C-47.657 1.0767 -47.5758 0.889441 -47.4134 0.733664C-47.2476 0.577888 -47.0504 0.5 -46.8217 0.5C-46.593 0.5 -46.3975 0.577888 -46.2351 0.733664C-46.0694 0.889441 -45.9865 1.0767 -45.9865 1.29545C-45.9865 1.5142 -46.0694 1.70147 -46.2351 1.85724C-46.3975 2.01302 -46.593 2.09091 -46.8217 2.09091ZM-40.9938 11.1591C-41.7097 11.1591 -42.3262 10.9901 -42.8432 10.652C-43.3603 10.3139 -43.758 9.84825 -44.0364 9.25497C-44.3148 8.66169 -44.454 7.9839 -44.454 7.22159C-44.454 6.44602 -44.3115 5.7616 -44.0265 5.16832C-43.7381 4.57173 -43.3371 4.10606 -42.8233 3.77131C-42.3063 3.43324 -41.7031 3.2642 -41.0137 3.2642C-40.4767 3.2642 -39.9928 3.36364 -39.562 3.5625C-39.1311 3.76136 -38.7781 4.03977 -38.503 4.39773C-38.2279 4.75568 -38.0572 5.1733 -37.9909 5.65057H-39.1642C-39.2537 5.30256 -39.4526 4.99432 -39.7608 4.72585C-40.0658 4.45407 -40.4767 4.31818 -40.9938 4.31818C-41.4512 4.31818 -41.8522 4.4375 -42.1969 4.67614C-42.5383 4.91146 -42.8051 5.24455 -42.9973 5.67543C-43.1863 6.10298 -43.2807 6.60511 -43.2807 7.18182C-43.2807 7.77178 -43.1879 8.28551 -43.0023 8.72301C-42.8134 9.16051 -42.5482 9.50024 -42.2069 9.74219C-41.8622 9.98414 -41.4578 10.1051 -40.9938 10.1051C-40.6889 10.1051 -40.4121 10.0521 -40.1635 9.94602C-39.915 9.83996 -39.7045 9.6875 -39.5321 9.48864C-39.3598 9.28977 -39.2372 9.05114 -39.1642 8.77273H-37.9909C-38.0572 9.22348 -38.2213 9.6295 -38.4831 9.99077C-38.7417 10.3487 -39.0847 10.6338 -39.5123 10.8459C-39.9365 11.0547 -40.4303 11.1591 -40.9938 11.1591ZM-35.182 8.21591L-35.2019 6.7642H-34.9632L-31.6223 3.36364H-30.1706L-33.7303 6.96307H-33.8297L-35.182 8.21591ZM-36.2757 11V0.818182H-35.1025V11H-36.2757ZM-31.4235 11L-34.4064 7.22159L-33.5712 6.40625L-29.932 11H-31.4235ZM-21.402 3.36364V4.35795H-25.3594V3.36364H-21.402ZM-24.206 1.53409H-23.0327V8.8125C-23.0327 9.14394 -22.9846 9.39252 -22.8885 9.55824C-22.7891 9.72064 -22.6631 9.83002 -22.5107 9.88636C-22.3549 9.93939 -22.1908 9.96591 -22.0185 9.96591C-21.8892 9.96591 -21.7831 9.95928 -21.7003 9.94602C-21.6174 9.92945 -21.5511 9.91619 -21.5014 9.90625L-21.2628 10.9602C-21.3423 10.9901 -21.4534 11.0199 -21.5959 11.0497C-21.7384 11.0829 -21.919 11.0994 -22.1378 11.0994C-22.4692 11.0994 -22.794 11.0282 -23.1122 10.8857C-23.4271 10.7431 -23.6889 10.526 -23.8977 10.2344C-24.1032 9.94271 -24.206 9.57481 -24.206 9.13068V1.53409ZM-18.2997 6.40625V11H-19.473V0.818182H-18.2997V4.55682H-18.2003C-18.0213 4.16241 -17.7528 3.84919 -17.3949 3.61719C-17.0336 3.38187 -16.553 3.2642 -15.9531 3.2642C-15.4328 3.2642 -14.977 3.36861 -14.5859 3.57741C-14.1948 3.78291 -13.8916 4.09943 -13.6761 4.52699C-13.4574 4.95123 -13.348 5.49148 -13.348 6.14773V11H-14.5213V6.22727C-14.5213 5.62074 -14.6787 5.15175 -14.9936 4.82031C-15.3052 4.48556 -15.7377 4.31818 -16.2912 4.31818C-16.6757 4.31818 -17.0204 4.39938 -17.3253 4.56179C-17.6269 4.72419 -17.8655 4.96117 -18.0412 5.27273C-18.2135 5.58428 -18.2997 5.96212 -18.2997 6.40625ZM-7.99982 11.1591C-8.73562 11.1591 -9.37032 10.9967 -9.90394 10.6719C-10.4342 10.3438 -10.8436 9.88636 -11.1319 9.29972C-11.417 8.70975 -11.5595 8.02367 -11.5595 7.24148C-11.5595 6.45928 -11.417 5.76989 -11.1319 5.1733C-10.8436 4.57339 -10.4425 4.10606 -9.9288 3.77131C-9.41175 3.43324 -8.80853 3.2642 -8.11914 3.2642C-7.72141 3.2642 -7.32866 3.33049 -6.94087 3.46307C-6.55309 3.59564 -6.20011 3.81108 -5.88192 4.10938C-5.56374 4.40436 -5.31019 4.79545 -5.12127 5.28267C-4.93235 5.76989 -4.83789 6.36979 -4.83789 7.08239V7.57955H-10.7243V6.56534H-6.03107C-6.03107 6.13447 -6.11725 5.75 -6.28959 5.41193C-6.45863 5.07386 -6.70058 4.80705 -7.01545 4.61151C-7.327 4.41596 -7.6949 4.31818 -8.11914 4.31818C-8.58647 4.31818 -8.99083 4.43419 -9.33221 4.66619C-9.67028 4.89489 -9.93046 5.19318 -10.1127 5.56108C-10.295 5.92898 -10.3862 6.32339 -10.3862 6.74432V7.42045C-10.3862 7.99716 -10.2868 8.48603 -10.0879 8.88707C-9.88571 9.2848 -9.60565 9.58807 -9.24769 9.79688C-8.88974 10.0024 -8.47378 10.1051 -7.99982 10.1051C-7.69158 10.1051 -7.41317 10.062 -7.16459 9.97585C-6.9127 9.88636 -6.69561 9.75379 -6.51332 9.57812C-6.33102 9.39915 -6.19016 9.17708 -6.09073 8.91193L-4.95721 9.23011C-5.07653 9.61458 -5.27705 9.95265 -5.55877 10.2443C-5.84049 10.5327 -6.18851 10.758 -6.60281 10.9205C-7.0171 11.0795 -7.48278 11.1591 -7.99982 11.1591ZM18.8816 11.179C18.3977 11.179 17.9585 11.0878 17.5641 10.9055C17.1697 10.7199 16.8565 10.4531 16.6245 10.1051C16.3925 9.75379 16.2765 9.32955 16.2765 8.83239C16.2765 8.39489 16.3626 8.04025 16.535 7.76847C16.7073 7.49337 16.9377 7.27794 17.226 7.12216C17.5144 6.96638 17.8326 6.85038 18.1806 6.77415C18.5319 6.6946 18.8849 6.63163 19.2395 6.58523C19.7035 6.52557 20.0797 6.48082 20.3681 6.45099C20.6597 6.41785 20.8719 6.36316 21.0044 6.28693C21.1403 6.2107 21.2083 6.07812 21.2083 5.8892V5.84943C21.2083 5.3589 21.074 4.97775 20.8056 4.70597C20.5404 4.43419 20.1377 4.2983 19.5975 4.2983C19.0373 4.2983 18.5982 4.42093 18.28 4.66619C17.9618 4.91146 17.7381 5.1733 17.6088 5.4517L16.4952 5.05398C16.6941 4.58996 16.9592 4.22869 17.2907 3.97017C17.6254 3.70833 17.99 3.52604 18.3844 3.4233C18.7821 3.31723 19.1732 3.2642 19.5577 3.2642C19.803 3.2642 20.0847 3.29403 20.4029 3.35369C20.7244 3.41004 21.0343 3.5277 21.3326 3.70668C21.6342 3.88565 21.8844 4.15578 22.0833 4.51705C22.2821 4.87831 22.3816 5.36222 22.3816 5.96875V11H21.2083V9.96591H21.1486C21.0691 10.1316 20.9365 10.3089 20.7509 10.4979C20.5653 10.6868 20.3184 10.8475 20.0101 10.9801C19.7019 11.1127 19.3257 11.179 18.8816 11.179ZM19.0605 10.125C19.5246 10.125 19.9157 10.0339 20.2338 9.85156C20.5553 9.66927 20.7973 9.43395 20.9597 9.1456C21.1254 8.85724 21.2083 8.55398 21.2083 8.2358V7.16193C21.1586 7.22159 21.0492 7.27628 20.8801 7.32599C20.7144 7.3724 20.5222 7.41383 20.3034 7.45028C20.088 7.48343 19.8775 7.51326 19.6721 7.53977C19.4699 7.56297 19.3058 7.58286 19.1799 7.59943C18.8749 7.6392 18.5899 7.70384 18.3248 7.79332C18.0629 7.8795 17.8508 8.01042 17.6884 8.18608C17.5293 8.35843 17.4498 8.59375 17.4498 8.89205C17.4498 9.29972 17.6006 9.60795 17.9022 9.81676C18.2071 10.0223 18.5932 10.125 19.0605 10.125ZM27.8441 3.36364V4.35795H23.8867V3.36364H27.8441ZM25.0401 1.53409H26.2134V8.8125C26.2134 9.14394 26.2615 9.39252 26.3576 9.55824C26.457 9.72064 26.583 9.83002 26.7354 9.88636C26.8912 9.93939 27.0553 9.96591 27.2276 9.96591C27.3569 9.96591 27.463 9.95928 27.5458 9.94602C27.6287 9.92945 27.695 9.91619 27.7447 9.90625L27.9833 10.9602C27.9038 10.9901 27.7927 11.0199 27.6502 11.0497C27.5077 11.0829 27.3271 11.0994 27.1083 11.0994C26.7769 11.0994 26.4521 11.0282 26.1339 10.8857C25.819 10.7431 25.5572 10.526 25.3484 10.2344C25.1429 9.94271 25.0401 9.57481 25.0401 9.13068V1.53409ZM36.8675 3.36364V4.35795H32.9102V3.36364H36.8675ZM34.0636 1.53409H35.2369V8.8125C35.2369 9.14394 35.2849 9.39252 35.381 9.55824C35.4805 9.72064 35.6064 9.83002 35.7589 9.88636C35.9147 9.93939 36.0787 9.96591 36.2511 9.96591C36.3803 9.96591 36.4864 9.95928 36.5692 9.94602C36.6521 9.92945 36.7184 9.91619 36.7681 9.90625L37.0067 10.9602C36.9272 10.9901 36.8162 11.0199 36.6737 11.0497C36.5311 11.0829 36.3505 11.0994 36.1317 11.0994C35.8003 11.0994 35.4755 11.0282 35.1573 10.8857C34.8424 10.7431 34.5806 10.526 34.3718 10.2344C34.1663 9.94271 34.0636 9.57481 34.0636 9.13068V1.53409ZM39.9698 6.40625V11H38.7965V0.818182H39.9698V4.55682H40.0692C40.2482 4.16241 40.5167 3.84919 40.8746 3.61719C41.2359 3.38187 41.7165 3.2642 42.3164 3.2642C42.8368 3.2642 43.2925 3.36861 43.6836 3.57741C44.0747 3.78291 44.378 4.09943 44.5934 4.52699C44.8121 4.95123 44.9215 5.49148 44.9215 6.14773V11H43.7482V6.22727C43.7482 5.62074 43.5908 5.15175 43.2759 4.82031C42.9644 4.48556 42.5318 4.31818 41.9783 4.31818C41.5939 4.31818 41.2492 4.39938 40.9442 4.56179C40.6426 4.72419 40.404 4.96117 40.2283 5.27273C40.056 5.58428 39.9698 5.96212 39.9698 6.40625ZM50.2697 11.1591C49.5339 11.1591 48.8992 10.9967 48.3656 10.6719C47.8353 10.3438 47.426 9.88636 47.1376 9.29972C46.8526 8.70975 46.71 8.02367 46.71 7.24148C46.71 6.45928 46.8526 5.76989 47.1376 5.1733C47.426 4.57339 47.827 4.10606 48.3407 3.77131C48.8578 3.43324 49.461 3.2642 50.1504 3.2642C50.5481 3.2642 50.9409 3.33049 51.3287 3.46307C51.7164 3.59564 52.0694 3.81108 52.3876 4.10938C52.7058 4.40436 52.9593 4.79545 53.1483 5.28267C53.3372 5.76989 53.4316 6.36979 53.4316 7.08239V7.57955H47.5453V6.56534H52.2385C52.2385 6.13447 52.1523 5.75 51.9799 5.41193C51.8109 5.07386 51.569 4.80705 51.2541 4.61151C50.9425 4.41596 50.5746 4.31818 50.1504 4.31818C49.6831 4.31818 49.2787 4.43419 48.9373 4.66619C48.5993 4.89489 48.3391 5.19318 48.1568 5.56108C47.9745 5.92898 47.8833 6.32339 47.8833 6.74432V7.42045C47.8833 7.99716 47.9828 8.48603 48.1816 8.88707C48.3838 9.2848 48.6639 9.58807 49.0218 9.79688C49.3798 10.0024 49.7958 10.1051 50.2697 10.1051C50.5779 10.1051 50.8564 10.062 51.1049 9.97585C51.3568 9.88636 51.5739 9.75379 51.7562 9.57812C51.9385 9.39915 52.0794 9.17708 52.1788 8.91193L53.3123 9.23011C53.193 9.61458 52.9925 9.95265 52.7108 10.2443C52.429 10.5327 52.081 10.758 51.6667 10.9205C51.2524 11.0795 50.7868 11.1591 50.2697 11.1591ZM62.475 3.36364V4.35795H58.5176V3.36364H62.475ZM59.671 1.53409H60.8443V8.8125C60.8443 9.14394 60.8923 9.39252 60.9885 9.55824C61.0879 9.72064 61.2138 9.83002 61.3663 9.88636C61.5221 9.93939 61.6861 9.96591 61.8585 9.96591C61.9877 9.96591 62.0938 9.95928 62.1767 9.94602C62.2595 9.92945 62.3258 9.91619 62.3755 9.90625L62.6142 10.9602C62.5346 10.9901 62.4236 11.0199 62.2811 11.0497C62.1386 11.0829 61.9579 11.0994 61.7392 11.0994C61.4077 11.0994 61.0829 11.0282 60.7647 10.8857C60.4499 10.7431 60.188 10.526 59.9792 10.2344C59.7737 9.94271 59.671 9.57481 59.671 9.13068V1.53409ZM67.2601 11.1591C66.5707 11.1591 65.9659 10.995 65.4455 10.6669C64.9284 10.3388 64.5241 9.87973 64.2324 9.28977C63.9441 8.69981 63.7999 8.01042 63.7999 7.22159C63.7999 6.42614 63.9441 5.73177 64.2324 5.13849C64.5241 4.54522 64.9284 4.08452 65.4455 3.75639C65.9659 3.42827 66.5707 3.2642 67.2601 3.2642C67.9495 3.2642 68.5527 3.42827 69.0698 3.75639C69.5901 4.08452 69.9945 4.54522 70.2828 5.13849C70.5745 5.73177 70.7203 6.42614 70.7203 7.22159C70.7203 8.01042 70.5745 8.69981 70.2828 9.28977C69.9945 9.87973 69.5901 10.3388 69.0698 10.6669C68.5527 10.995 67.9495 11.1591 67.2601 11.1591ZM67.2601 10.1051C67.7838 10.1051 68.2147 9.97088 68.5527 9.70241C68.8908 9.43395 69.141 9.08097 69.3034 8.64347C69.4659 8.20597 69.5471 7.73201 69.5471 7.22159C69.5471 6.71117 69.4659 6.23556 69.3034 5.79474C69.141 5.35393 68.8908 4.99763 68.5527 4.72585C68.2147 4.45407 67.7838 4.31818 67.2601 4.31818C66.7364 4.31818 66.3056 4.45407 65.9675 4.72585C65.6294 4.99763 65.3792 5.35393 65.2168 5.79474C65.0544 6.23556 64.9732 6.71117 64.9732 7.22159C64.9732 7.73201 65.0544 8.20597 65.2168 8.64347C65.3792 9.08097 65.6294 9.43395 65.9675 9.70241C66.3056 9.97088 66.7364 10.1051 67.2601 10.1051ZM72.5114 13.8636V3.36364H73.6449V4.5767H73.7841C73.8703 4.44413 73.9896 4.27509 74.142 4.0696C74.2978 3.8608 74.5199 3.67519 74.8082 3.51278C75.0999 3.34706 75.4943 3.2642 75.9915 3.2642C76.6345 3.2642 77.2012 3.42495 77.6918 3.74645C78.1823 4.06794 78.5651 4.52367 78.8402 5.11364C79.1153 5.7036 79.2528 6.39962 79.2528 7.2017C79.2528 8.01042 79.1153 8.71141 78.8402 9.30469C78.5651 9.89465 78.1839 10.352 77.6967 10.6768C77.2095 10.9983 76.6477 11.1591 76.0114 11.1591C75.5208 11.1591 75.1281 11.0779 74.8331 10.9155C74.5381 10.7498 74.3111 10.5625 74.152 10.3537C73.9929 10.1416 73.8703 9.96591 73.7841 9.8267H73.6847V13.8636H72.5114ZM73.6648 7.18182C73.6648 7.75852 73.7493 8.26728 73.9183 8.7081C74.0874 9.1456 74.3343 9.48864 74.6591 9.73722C74.9839 9.98248 75.3816 10.1051 75.8523 10.1051C76.3428 10.1051 76.7521 9.97585 77.0803 9.71733C77.4117 9.45549 77.6603 9.10417 77.826 8.66335C77.995 8.21922 78.0795 7.72538 78.0795 7.18182C78.0795 6.64489 77.9967 6.16098 77.831 5.73011C77.6686 5.29593 77.4216 4.95289 77.0902 4.70099C76.7621 4.44579 76.3494 4.31818 75.8523 4.31818C75.375 4.31818 74.974 4.43916 74.6491 4.68111C74.3243 4.91974 74.0791 5.2545 73.9134 5.68537C73.7476 6.11293 73.6648 6.61174 73.6648 7.18182ZM84.9801 11V3.36364H86.1136V4.51705H86.1932C86.3324 4.1392 86.5843 3.83262 86.9489 3.5973C87.3134 3.36198 87.7244 3.24432 88.1818 3.24432C88.268 3.24432 88.3757 3.24597 88.505 3.24929C88.6342 3.2526 88.732 3.25758 88.7983 3.2642V4.45739C88.7585 4.44744 88.6674 4.43253 88.5249 4.41264C88.3857 4.38944 88.2382 4.37784 88.0824 4.37784C87.7112 4.37784 87.3797 4.45573 87.0881 4.61151C86.7997 4.76397 86.571 4.97609 86.402 5.24787C86.2363 5.51634 86.1534 5.82292 86.1534 6.16761V11H84.9801ZM90.1891 11V3.36364H91.3624V11H90.1891ZM90.7857 2.09091C90.557 2.09091 90.3598 2.01302 90.1941 1.85724C90.0317 1.70147 89.9505 1.5142 89.9505 1.29545C89.9505 1.0767 90.0317 0.889441 90.1941 0.733664C90.3598 0.577888 90.557 0.5 90.7857 0.5C91.0144 0.5 91.2099 0.577888 91.3723 0.733664C91.5381 0.889441 91.6209 1.0767 91.6209 1.29545C91.6209 1.5142 91.5381 1.70147 91.3723 1.85724C91.2099 2.01302 91.0144 2.09091 90.7857 2.09091ZM96.5938 14.0227C96.027 14.0227 95.5398 13.9498 95.1321 13.804C94.7244 13.6615 94.3847 13.4725 94.1129 13.2372C93.8445 13.0052 93.6307 12.7566 93.4716 12.4915L94.4062 11.8352C94.5123 11.9744 94.6465 12.1335 94.8089 12.3125C94.9714 12.4948 95.1934 12.6522 95.4751 12.7848C95.7602 12.9207 96.133 12.9886 96.5938 12.9886C97.2102 12.9886 97.719 12.8395 98.12 12.5412C98.5211 12.2429 98.7216 11.7756 98.7216 11.1392V9.58807H98.6222C98.536 9.72727 98.4134 9.89962 98.2543 10.1051C98.0985 10.3073 97.8731 10.4879 97.5781 10.647C97.2865 10.8028 96.892 10.8807 96.3949 10.8807C95.7784 10.8807 95.2249 10.7348 94.7344 10.4432C94.2472 10.1515 93.861 9.72727 93.576 9.17045C93.2943 8.61364 93.1534 7.9375 93.1534 7.14205C93.1534 6.35985 93.291 5.67874 93.5661 5.09872C93.8411 4.51539 94.224 4.06463 94.7145 3.74645C95.205 3.42495 95.7718 3.2642 96.4148 3.2642C96.9119 3.2642 97.3063 3.34706 97.598 3.51278C97.893 3.67519 98.1184 3.8608 98.2741 4.0696C98.4332 4.27509 98.5559 4.44413 98.642 4.5767H98.7614V3.36364H99.8949V11.2188C99.8949 11.875 99.7457 12.4086 99.4474 12.8196C99.1525 13.2339 98.7547 13.5372 98.2543 13.7294C97.7571 13.925 97.2036 14.0227 96.5938 14.0227ZM96.554 9.8267C97.0246 9.8267 97.4223 9.71899 97.7472 9.50355C98.072 9.28812 98.3189 8.97822 98.4879 8.57386C98.657 8.16951 98.7415 7.68561 98.7415 7.12216C98.7415 6.57197 98.6586 6.08641 98.4929 5.66548C98.3272 5.24455 98.0819 4.91477 97.7571 4.67614C97.4323 4.4375 97.0313 4.31818 96.554 4.31818C96.0568 4.31818 95.6425 4.44413 95.3111 4.69602C94.983 4.94792 94.736 5.28598 94.5703 5.71023C94.4079 6.13447 94.3267 6.60511 94.3267 7.12216C94.3267 7.65246 94.4096 8.12145 94.5753 8.52912C94.7443 8.93348 94.9929 9.25166 95.321 9.48366C95.6525 9.71236 96.0634 9.8267 96.554 9.8267ZM103.216 6.40625V11H102.043V0.818182H103.216V4.55682H103.315C103.494 4.16241 103.763 3.84919 104.121 3.61719C104.482 3.38187 104.963 3.2642 105.562 3.2642C106.083 3.2642 106.539 3.36861 106.93 3.57741C107.321 3.78291 107.624 4.09943 107.839 4.52699C108.058 4.95123 108.168 5.49148 108.168 6.14773V11H106.994V6.22727C106.994 5.62074 106.837 5.15175 106.522 4.82031C106.21 4.48556 105.778 4.31818 105.224 4.31818C104.84 4.31818 104.495 4.39938 104.19 4.56179C103.889 4.72419 103.65 4.96117 103.474 5.27273C103.302 5.58428 103.216 5.96212 103.216 6.40625ZM113.635 3.36364V4.35795H109.678V3.36364H113.635ZM110.831 1.53409H112.004V8.8125C112.004 9.14394 112.052 9.39252 112.149 9.55824C112.248 9.72064 112.374 9.83002 112.526 9.88636C112.682 9.93939 112.846 9.96591 113.019 9.96591C113.148 9.96591 113.254 9.95928 113.337 9.94602C113.42 9.92945 113.486 9.91619 113.536 9.90625L113.774 10.9602C113.695 10.9901 113.584 11.0199 113.441 11.0497C113.299 11.0829 113.118 11.0994 112.899 11.0994C112.568 11.0994 112.243 11.0282 111.925 10.8857C111.61 10.7431 111.348 10.526 111.139 10.2344C110.934 9.94271 110.831 9.57481 110.831 9.13068V1.53409ZM122.44 11.1591C121.75 11.1591 121.146 10.995 120.625 10.6669C120.108 10.3388 119.704 9.87973 119.412 9.28977C119.124 8.69981 118.98 8.01042 118.98 7.22159C118.98 6.42614 119.124 5.73177 119.412 5.13849C119.704 4.54522 120.108 4.08452 120.625 3.75639C121.146 3.42827 121.75 3.2642 122.44 3.2642C123.129 3.2642 123.732 3.42827 124.249 3.75639C124.77 4.08452 125.174 4.54522 125.463 5.13849C125.754 5.73177 125.9 6.42614 125.9 7.22159C125.9 8.01042 125.754 8.69981 125.463 9.28977C125.174 9.87973 124.77 10.3388 124.249 10.6669C123.732 10.995 123.129 11.1591 122.44 11.1591ZM122.44 10.1051C122.963 10.1051 123.394 9.97088 123.732 9.70241C124.07 9.43395 124.321 9.08097 124.483 8.64347C124.646 8.20597 124.727 7.73201 124.727 7.22159C124.727 6.71117 124.646 6.23556 124.483 5.79474C124.321 5.35393 124.07 4.99763 123.732 4.72585C123.394 4.45407 122.963 4.31818 122.44 4.31818C121.916 4.31818 121.485 4.45407 121.147 4.72585C120.809 4.99763 120.559 5.35393 120.396 5.79474C120.234 6.23556 120.153 6.71117 120.153 7.22159C120.153 7.73201 120.234 8.20597 120.396 8.64347C120.559 9.08097 120.809 9.43395 121.147 9.70241C121.485 9.97088 121.916 10.1051 122.44 10.1051ZM131.092 3.36364V4.35795H126.975V3.36364H131.092ZM128.208 11V2.30966C128.208 1.87216 128.311 1.50758 128.516 1.21591C128.722 0.924242 128.989 0.705492 129.317 0.559658C129.645 0.413825 129.991 0.340908 130.356 0.340908C130.644 0.340908 130.879 0.364109 131.062 0.410511C131.244 0.456912 131.38 0.499999 131.469 0.539772L131.131 1.55398C131.072 1.53409 130.989 1.50923 130.883 1.4794C130.78 1.44957 130.644 1.43466 130.475 1.43466C130.087 1.43466 129.807 1.53243 129.635 1.72798C129.466 1.92353 129.381 2.21023 129.381 2.58807V11H128.208ZM137.429 13.8636C137.23 13.8636 137.053 13.8471 136.897 13.8139C136.741 13.7841 136.634 13.7543 136.574 13.7244L136.872 12.6903C137.157 12.7633 137.409 12.7898 137.628 12.7699C137.847 12.75 138.041 12.6522 138.21 12.4766C138.382 12.3042 138.539 12.0241 138.682 11.6364L138.901 11.0398L136.077 3.36364H137.35L139.458 9.44886H139.537L141.645 3.36364H142.918L139.676 12.1136C139.53 12.508 139.35 12.8345 139.134 13.093C138.919 13.3549 138.669 13.5488 138.384 13.6747C138.102 13.8007 137.784 13.8636 137.429 13.8636ZM147.295 11.1591C146.606 11.1591 146.001 10.995 145.481 10.6669C144.964 10.3388 144.559 9.87973 144.268 9.28977C143.979 8.69981 143.835 8.01042 143.835 7.22159C143.835 6.42614 143.979 5.73177 144.268 5.13849C144.559 4.54522 144.964 4.08452 145.481 3.75639C146.001 3.42827 146.606 3.2642 147.295 3.2642C147.985 3.2642 148.588 3.42827 149.105 3.75639C149.625 4.08452 150.03 4.54522 150.318 5.13849C150.61 5.73177 150.756 6.42614 150.756 7.22159C150.756 8.01042 150.61 8.69981 150.318 9.28977C150.03 9.87973 149.625 10.3388 149.105 10.6669C148.588 10.995 147.985 11.1591 147.295 11.1591ZM147.295 10.1051C147.819 10.1051 148.25 9.97088 148.588 9.70241C148.926 9.43395 149.176 9.08097 149.339 8.64347C149.501 8.20597 149.582 7.73201 149.582 7.22159C149.582 6.71117 149.501 6.23556 149.339 5.79474C149.176 5.35393 148.926 4.99763 148.588 4.72585C148.25 4.45407 147.819 4.31818 147.295 4.31818C146.772 4.31818 146.341 4.45407 146.003 4.72585C145.665 4.99763 145.414 5.35393 145.252 5.79474C145.09 6.23556 145.008 6.71117 145.008 7.22159C145.008 7.73201 145.09 8.20597 145.252 8.64347C145.414 9.08097 145.665 9.43395 146.003 9.70241C146.341 9.97088 146.772 10.1051 147.295 10.1051ZM157.359 7.87784V3.36364H158.532V11H157.359V9.70739H157.279C157.1 10.0952 156.822 10.425 156.444 10.6967C156.066 10.9652 155.589 11.0994 155.012 11.0994C154.535 11.0994 154.111 10.995 153.74 10.7862C153.368 10.5741 153.077 10.2559 152.865 9.83168C152.653 9.40412 152.547 8.86553 152.547 8.21591V3.36364H153.72V8.13636C153.72 8.69318 153.876 9.13731 154.187 9.46875C154.502 9.80019 154.903 9.96591 155.39 9.96591C155.682 9.96591 155.979 9.89134 156.28 9.74219C156.585 9.59304 156.84 9.36435 157.046 9.05611C157.255 8.74787 157.359 8.35511 157.359 7.87784ZM160.681 11V3.36364H161.815V4.51705H161.894C162.034 4.1392 162.285 3.83262 162.65 3.5973C163.015 3.36198 163.426 3.24432 163.883 3.24432C163.969 3.24432 164.077 3.24597 164.206 3.24929C164.335 3.2526 164.433 3.25758 164.499 3.2642V4.45739C164.46 4.44744 164.369 4.43253 164.226 4.41264C164.087 4.38944 163.939 4.37784 163.784 4.37784C163.412 4.37784 163.081 4.45573 162.789 4.61151C162.501 4.76397 162.272 4.97609 162.103 5.24787C161.937 5.51634 161.855 5.82292 161.855 6.16761V11H160.681ZM-60.767 28V17.8182H-59.5938V21.5767H-59.4943C-59.4081 21.4441 -59.2888 21.2751 -59.1364 21.0696C-58.9806 20.8608 -58.7585 20.6752 -58.4702 20.5128C-58.1785 20.3471 -57.7841 20.2642 -57.2869 20.2642C-56.6439 20.2642 -56.0772 20.425 -55.5866 20.7464C-55.0961 21.0679 -54.7133 21.5237 -54.4382 22.1136C-54.1631 22.7036 -54.0256 23.3996 -54.0256 24.2017C-54.0256 25.0104 -54.1631 25.7114 -54.4382 26.3047C-54.7133 26.8946 -55.0945 27.352 -55.5817 27.6768C-56.0689 27.9983 -56.6307 28.1591 -57.267 28.1591C-57.7576 28.1591 -58.1503 28.0779 -58.4453 27.9155C-58.7403 27.7498 -58.9673 27.5625 -59.1264 27.3537C-59.2855 27.1416 -59.4081 26.9659 -59.4943 26.8267H-59.6335V28H-60.767ZM-59.6136 24.1818C-59.6136 24.7585 -59.5291 25.2673 -59.3601 25.7081C-59.1911 26.1456 -58.9441 26.4886 -58.6193 26.7372C-58.2945 26.9825 -57.8968 27.1051 -57.4261 27.1051C-56.9356 27.1051 -56.5263 26.9759 -56.1982 26.7173C-55.8667 26.4555 -55.6181 26.1042 -55.4524 25.6634C-55.2834 25.2192 -55.1989 24.7254 -55.1989 24.1818C-55.1989 23.6449 -55.2817 23.161 -55.4474 22.7301C-55.6098 22.2959 -55.8568 21.9529 -56.1882 21.701C-56.5163 21.4458 -56.929 21.3182 -57.4261 21.3182C-57.9034 21.3182 -58.3045 21.4392 -58.6293 21.6811C-58.9541 21.9197 -59.1993 22.2545 -59.3651 22.6854C-59.5308 23.1129 -59.6136 23.6117 -59.6136 24.1818ZM-52.2308 28V20.3636H-51.0973V21.517H-51.0178C-50.8786 21.1392 -50.6267 20.8326 -50.2621 20.5973C-49.8975 20.362 -49.4865 20.2443 -49.0291 20.2443C-48.9429 20.2443 -48.8352 20.246 -48.706 20.2493C-48.5767 20.2526 -48.4789 20.2576 -48.4126 20.2642V21.4574C-48.4524 21.4474 -48.5436 21.4325 -48.6861 21.4126C-48.8253 21.3894 -48.9728 21.3778 -49.1286 21.3778C-49.4998 21.3778 -49.8312 21.4557 -50.1229 21.6115C-50.4112 21.764 -50.6399 21.9761 -50.8089 22.2479C-50.9747 22.5163 -51.0575 22.8229 -51.0575 23.1676V28H-52.2308ZM-44.152 28.1591C-44.8414 28.1591 -45.4463 27.995 -45.9666 27.6669C-46.4837 27.3388 -46.888 26.8797 -47.1797 26.2898C-47.468 25.6998 -47.6122 25.0104 -47.6122 24.2216C-47.6122 23.4261 -47.468 22.7318 -47.1797 22.1385C-46.888 21.5452 -46.4837 21.0845 -45.9666 20.7564C-45.4463 20.4283 -44.8414 20.2642 -44.152 20.2642C-43.4626 20.2642 -42.8594 20.4283 -42.3423 20.7564C-41.822 21.0845 -41.4176 21.5452 -41.1293 22.1385C-40.8376 22.7318 -40.6918 23.4261 -40.6918 24.2216C-40.6918 25.0104 -40.8376 25.6998 -41.1293 26.2898C-41.4176 26.8797 -41.822 27.3388 -42.3423 27.6669C-42.8594 27.995 -43.4626 28.1591 -44.152 28.1591ZM-44.152 27.1051C-43.6283 27.1051 -43.1974 26.9709 -42.8594 26.7024C-42.5213 26.4339 -42.2711 26.081 -42.1087 25.6435C-41.9463 25.206 -41.8651 24.732 -41.8651 24.2216C-41.8651 23.7112 -41.9463 23.2356 -42.1087 22.7947C-42.2711 22.3539 -42.5213 21.9976 -42.8594 21.7259C-43.1974 21.4541 -43.6283 21.3182 -44.152 21.3182C-44.6757 21.3182 -45.1065 21.4541 -45.4446 21.7259C-45.7827 21.9976 -46.0329 22.3539 -46.1953 22.7947C-46.3577 23.2356 -46.4389 23.7112 -46.4389 24.2216C-46.4389 24.732 -46.3577 25.206 -46.1953 25.6435C-46.0329 26.081 -45.7827 26.4339 -45.4446 26.7024C-45.1065 26.9709 -44.6757 27.1051 -44.152 27.1051ZM-37.4304 28L-39.7571 20.3636H-38.5241L-36.8736 26.2102H-36.794L-35.1634 20.3636H-33.9105L-32.2997 26.1903H-32.2202L-30.5696 20.3636H-29.3366L-31.6634 28H-32.8168L-34.4872 22.1335H-34.6065L-36.277 28H-37.4304ZM-22.3764 22.0739L-23.4304 22.3722C-23.4967 22.1965 -23.5945 22.0258 -23.7237 21.8601C-23.8497 21.6911 -24.022 21.5518 -24.2408 21.4425C-24.4595 21.3331 -24.7396 21.2784 -25.081 21.2784C-25.5483 21.2784 -25.9377 21.3861 -26.2493 21.6016C-26.5575 21.8137 -26.7116 22.0838 -26.7116 22.4119C-26.7116 22.7036 -26.6056 22.9339 -26.3935 23.103C-26.1813 23.272 -25.8499 23.4129 -25.3991 23.5256L-24.2656 23.804C-23.5829 23.9697 -23.0741 24.2232 -22.7393 24.5646C-22.4046 24.9027 -22.2372 25.3385 -22.2372 25.8722C-22.2372 26.3097 -22.3632 26.7008 -22.6151 27.0455C-22.8636 27.3902 -23.2116 27.6619 -23.6591 27.8608C-24.1065 28.0597 -24.6269 28.1591 -25.2202 28.1591C-25.9991 28.1591 -26.6437 27.9901 -27.1541 27.652C-27.6645 27.3139 -27.9877 26.8201 -28.1236 26.1705L-27.0099 25.892C-26.9039 26.303 -26.7034 26.6113 -26.4084 26.8168C-26.1101 27.0223 -25.7206 27.125 -25.2401 27.125C-24.6932 27.125 -24.259 27.009 -23.9375 26.777C-23.6127 26.5417 -23.4503 26.2599 -23.4503 25.9318C-23.4503 25.6667 -23.5431 25.4446 -23.7287 25.2656C-23.9143 25.0833 -24.1993 24.9474 -24.5838 24.858L-25.8565 24.5597C-26.5559 24.3939 -27.0696 24.1371 -27.3977 23.7891C-27.7225 23.4377 -27.8849 22.9986 -27.8849 22.4716C-27.8849 22.0407 -27.764 21.6596 -27.522 21.3281C-27.2768 20.9967 -26.9437 20.7365 -26.5227 20.5476C-26.0985 20.3587 -25.6179 20.2642 -25.081 20.2642C-24.3253 20.2642 -23.732 20.4299 -23.3011 20.7614C-22.867 21.0928 -22.5587 21.5303 -22.3764 22.0739ZM-17.2694 28.1591C-18.0051 28.1591 -18.6399 27.9967 -19.1735 27.6719C-19.7038 27.3438 -20.1131 26.8864 -20.4015 26.2997C-20.6865 25.7098 -20.829 25.0237 -20.829 24.2415C-20.829 23.4593 -20.6865 22.7699 -20.4015 22.1733C-20.1131 21.5734 -19.7121 21.1061 -19.1983 20.7713C-18.6813 20.4332 -18.0781 20.2642 -17.3887 20.2642C-16.9909 20.2642 -16.5982 20.3305 -16.2104 20.4631C-15.8226 20.5956 -15.4696 20.8111 -15.1515 21.1094C-14.8333 21.4044 -14.5797 21.7955 -14.3908 22.2827C-14.2019 22.7699 -14.1074 23.3698 -14.1074 24.0824V24.5795H-19.9938V23.5653H-15.3006C-15.3006 23.1345 -15.3868 22.75 -15.5591 22.4119C-15.7282 22.0739 -15.9701 21.8071 -16.285 21.6115C-16.5965 21.416 -16.9644 21.3182 -17.3887 21.3182C-17.856 21.3182 -18.2604 21.4342 -18.6017 21.6662C-18.9398 21.8949 -19.2 22.1932 -19.3823 22.5611C-19.5646 22.929 -19.6557 23.3234 -19.6557 23.7443V24.4205C-19.6557 24.9972 -19.5563 25.486 -19.3574 25.8871C-19.1552 26.2848 -18.8752 26.5881 -18.5172 26.7969C-18.1593 27.0024 -17.7433 27.1051 -17.2694 27.1051C-16.9611 27.1051 -16.6827 27.062 -16.4341 26.9759C-16.1822 26.8864 -15.9651 26.7538 -15.7828 26.5781C-15.6006 26.3991 -15.4597 26.1771 -15.3603 25.9119L-14.2267 26.2301C-14.3461 26.6146 -14.5466 26.9527 -14.8283 27.2443C-15.11 27.5327 -15.458 27.758 -15.8723 27.9205C-16.2866 28.0795 -16.7523 28.1591 -17.2694 28.1591ZM-12.3226 28V20.3636H-11.1891V21.517H-11.1096C-10.9703 21.1392 -10.7185 20.8326 -10.3539 20.5973C-9.98929 20.362 -9.5783 20.2443 -9.12092 20.2443C-9.03474 20.2443 -8.92702 20.246 -8.79776 20.2493C-8.6685 20.2526 -8.57073 20.2576 -8.50444 20.2642V21.4574C-8.54421 21.4474 -8.63536 21.4325 -8.77788 21.4126C-8.91708 21.3894 -9.06457 21.3778 -9.22035 21.3778C-9.59156 21.3778 -9.923 21.4557 -10.2147 21.6115C-10.503 21.764 -10.7317 21.9761 -10.9007 22.2479C-11.0665 22.5163 -11.1493 22.8229 -11.1493 23.1676V28H-12.3226ZM-6.23864 26.608L-6.31818 27.1449C-6.37453 27.5227 -6.4607 27.9271 -6.5767 28.358C-6.68939 28.7888 -6.80705 29.1948 -6.92969 29.576C-7.05232 29.9571 -7.15341 30.2604 -7.23295 30.4858H-8.12784C-8.08475 30.2737 -8.02841 29.9936 -7.95881 29.6456C-7.8892 29.2976 -7.8196 28.9081 -7.75 28.4773C-7.67708 28.0497 -7.61742 27.6122 -7.57102 27.1648L-7.51136 26.608H-6.23864ZM3.19371 20.3636V21.358H-0.763672V20.3636H3.19371ZM0.389737 18.5341H1.56303V25.8125C1.56303 26.1439 1.61109 26.3925 1.70721 26.5582C1.80664 26.7206 1.93259 26.83 2.08505 26.8864C2.24083 26.9394 2.40489 26.9659 2.57724 26.9659C2.7065 26.9659 2.81256 26.9593 2.89542 26.946C2.97828 26.9295 3.04457 26.9162 3.09428 26.9062L3.33292 27.9602C3.25337 27.9901 3.14234 28.0199 2.99982 28.0497C2.8573 28.0829 2.67667 28.0994 2.45792 28.0994C2.12648 28.0994 1.80167 28.0282 1.48349 27.8857C1.16862 27.7431 0.906783 27.526 0.697976 27.2344C0.492483 26.9427 0.389737 26.5748 0.389737 26.1307V18.5341ZM6.29599 23.4062V28H5.12269V17.8182H6.29599V21.5568H6.39542C6.5744 21.1624 6.84286 20.8492 7.20082 20.6172C7.56209 20.3819 8.04267 20.2642 8.64258 20.2642C9.16294 20.2642 9.61867 20.3686 10.0098 20.5774C10.4009 20.7829 10.7041 21.0994 10.9196 21.527C11.1383 21.9512 11.2477 22.4915 11.2477 23.1477V28H10.0744V23.2273C10.0744 22.6207 9.91696 22.1518 9.6021 21.8203C9.29054 21.4856 8.85801 21.3182 8.30451 21.3182C7.92004 21.3182 7.57534 21.3994 7.27042 21.5618C6.96881 21.7242 6.73017 21.9612 6.55451 22.2727C6.38216 22.5843 6.29599 22.9621 6.29599 23.4062ZM16.5959 28.1591C15.8601 28.1591 15.2254 27.9967 14.6918 27.6719C14.1615 27.3438 13.7521 26.8864 13.4638 26.2997C13.1787 25.7098 13.0362 25.0237 13.0362 24.2415C13.0362 23.4593 13.1787 22.7699 13.4638 22.1733C13.7521 21.5734 14.1532 21.1061 14.6669 20.7713C15.1839 20.4332 15.7872 20.2642 16.4766 20.2642C16.8743 20.2642 17.267 20.3305 17.6548 20.4631C18.0426 20.5956 18.3956 20.8111 18.7138 21.1094C19.032 21.4044 19.2855 21.7955 19.4744 22.2827C19.6634 22.7699 19.7578 23.3698 19.7578 24.0824V24.5795H13.8714V23.5653H18.5646C18.5646 23.1345 18.4785 22.75 18.3061 22.4119C18.1371 22.0739 17.8951 21.8071 17.5803 21.6115C17.2687 21.416 16.9008 21.3182 16.4766 21.3182C16.0092 21.3182 15.6049 21.4342 15.2635 21.6662C14.9254 21.8949 14.6652 22.1932 14.483 22.5611C14.3007 22.929 14.2095 23.3234 14.2095 23.7443V24.4205C14.2095 24.9972 14.3089 25.486 14.5078 25.8871C14.71 26.2848 14.9901 26.5881 15.348 26.7969C15.706 27.0024 16.1219 27.1051 16.5959 27.1051C16.9041 27.1051 17.1825 27.062 17.4311 26.9759C17.683 26.8864 17.9001 26.7538 18.0824 26.5781C18.2647 26.3991 18.4055 26.1771 18.505 25.9119L19.6385 26.2301C19.5192 26.6146 19.3187 26.9527 19.0369 27.2443C18.7552 27.5327 18.4072 27.758 17.9929 27.9205C17.5786 28.0795 17.1129 28.1591 16.5959 28.1591ZM22.7159 23.4062V28H21.5426V20.3636H22.6761V21.5568H22.7756C22.9545 21.169 23.2263 20.8575 23.5909 20.6222C23.9555 20.3835 24.4261 20.2642 25.0028 20.2642C25.5199 20.2642 25.9723 20.3703 26.3601 20.5824C26.7479 20.7912 27.0495 21.1094 27.2649 21.5369C27.4804 21.9612 27.5881 22.4981 27.5881 23.1477V28H26.4148V23.2273C26.4148 22.6274 26.259 22.16 25.9474 21.8253C25.6359 21.4872 25.2083 21.3182 24.6648 21.3182C24.2902 21.3182 23.9555 21.3994 23.6605 21.5618C23.3688 21.7242 23.1385 21.9612 22.9695 22.2727C22.8004 22.5843 22.7159 22.9621 22.7159 23.4062ZM36.9906 20.3636V21.358H33.0332V20.3636H36.9906ZM34.1866 18.5341H35.3599V25.8125C35.3599 26.1439 35.408 26.3925 35.5041 26.5582C35.6035 26.7206 35.7295 26.83 35.8819 26.8864C36.0377 26.9394 36.2018 26.9659 36.3741 26.9659C36.5034 26.9659 36.6094 26.9593 36.6923 26.946C36.7752 26.9295 36.8414 26.9162 36.8912 26.9062L37.1298 27.9602C37.0502 27.9901 36.9392 28.0199 36.7967 28.0497C36.6542 28.0829 36.4735 28.0994 36.2548 28.0994C35.9234 28.0994 35.5985 28.0282 35.2804 27.8857C34.9655 27.7431 34.7037 27.526 34.4949 27.2344C34.2894 26.9427 34.1866 26.5748 34.1866 26.1307V18.5341ZM40.0929 23.4062V28H38.9196V17.8182H40.0929V21.5568H40.1923C40.3713 21.1624 40.6397 20.8492 40.9977 20.6172C41.359 20.3819 41.8395 20.2642 42.4395 20.2642C42.9598 20.2642 43.4155 20.3686 43.8066 20.5774C44.1977 20.7829 44.501 21.0994 44.7164 21.527C44.9352 21.9512 45.0446 22.4915 45.0446 23.1477V28H43.8713V23.2273C43.8713 22.6207 43.7138 22.1518 43.399 21.8203C43.0874 21.4856 42.6549 21.3182 42.1014 21.3182C41.7169 21.3182 41.3722 21.3994 41.0673 21.5618C40.7657 21.7242 40.527 21.9612 40.3514 22.2727C40.179 22.5843 40.0929 22.9621 40.0929 23.4062ZM50.3928 28.1591C49.657 28.1591 49.0223 27.9967 48.4886 27.6719C47.9583 27.3438 47.549 26.8864 47.2607 26.2997C46.9756 25.7098 46.8331 25.0237 46.8331 24.2415C46.8331 23.4593 46.9756 22.7699 47.2607 22.1733C47.549 21.5734 47.95 21.1061 48.4638 20.7713C48.9808 20.4332 49.584 20.2642 50.2734 20.2642C50.6712 20.2642 51.0639 20.3305 51.4517 20.4631C51.8395 20.5956 52.1925 20.8111 52.5107 21.1094C52.8288 21.4044 53.0824 21.7955 53.2713 22.2827C53.4602 22.7699 53.5547 23.3698 53.5547 24.0824V24.5795H47.6683V23.5653H52.3615C52.3615 23.1345 52.2753 22.75 52.103 22.4119C51.9339 22.0739 51.692 21.8071 51.3771 21.6115C51.0656 21.416 50.6977 21.3182 50.2734 21.3182C49.8061 21.3182 49.4018 21.4342 49.0604 21.6662C48.7223 21.8949 48.4621 22.1932 48.2798 22.5611C48.0975 22.929 48.0064 23.3234 48.0064 23.7443V24.4205C48.0064 24.9972 48.1058 25.486 48.3047 25.8871C48.5069 26.2848 48.7869 26.5881 49.1449 26.7969C49.5028 27.0024 49.9188 27.1051 50.3928 27.1051C50.701 27.1051 50.9794 27.062 51.228 26.9759C51.4799 26.8864 51.697 26.7538 51.8793 26.5781C52.0616 26.3991 52.2024 26.1771 52.3018 25.9119L53.4354 26.2301C53.3161 26.6146 53.1155 26.9527 52.8338 27.2443C52.5521 27.5327 52.2041 27.758 51.7898 27.9205C51.3755 28.0795 50.9098 28.1591 50.3928 28.1591ZM72.2628 23.4062V28H71.0895V20.3636H72.223V21.5568H72.3224C72.5014 21.169 72.7732 20.8575 73.1378 20.6222C73.5024 20.3835 73.973 20.2642 74.5497 20.2642C75.0668 20.2642 75.5192 20.3703 75.907 20.5824C76.2947 20.7912 76.5964 21.1094 76.8118 21.5369C77.0272 21.9612 77.1349 22.4981 77.1349 23.1477V28H75.9616V23.2273C75.9616 22.6274 75.8059 22.16 75.4943 21.8253C75.1828 21.4872 74.7552 21.3182 74.2116 21.3182C73.8371 21.3182 73.5024 21.3994 73.2074 21.5618C72.9157 21.7242 72.6854 21.9612 72.5163 22.2727C72.3473 22.5843 72.2628 22.9621 72.2628 23.4062ZM82.4806 28.1591C81.7449 28.1591 81.1101 27.9967 80.5765 27.6719C80.0462 27.3438 79.6369 26.8864 79.3485 26.2997C79.0635 25.7098 78.921 25.0237 78.921 24.2415C78.921 23.4593 79.0635 22.7699 79.3485 22.1733C79.6369 21.5734 80.0379 21.1061 80.5517 20.7713C81.0687 20.4332 81.6719 20.2642 82.3613 20.2642C82.7591 20.2642 83.1518 20.3305 83.5396 20.4631C83.9274 20.5956 84.2804 20.8111 84.5985 21.1094C84.9167 21.4044 85.1703 21.7955 85.3592 22.2827C85.5481 22.7699 85.6426 23.3698 85.6426 24.0824V24.5795H79.7562V23.5653H84.4494C84.4494 23.1345 84.3632 22.75 84.1909 22.4119C84.0218 22.0739 83.7799 21.8071 83.465 21.6115C83.1535 21.416 82.7856 21.3182 82.3613 21.3182C81.894 21.3182 81.4896 21.4342 81.1483 21.6662C80.8102 21.8949 80.55 22.1932 80.3677 22.5611C80.1854 22.929 80.0943 23.3234 80.0943 23.7443V24.4205C80.0943 24.9972 80.1937 25.486 80.3926 25.8871C80.5948 26.2848 80.8748 26.5881 81.2328 26.7969C81.5907 27.0024 82.0067 27.1051 82.4806 27.1051C82.7889 27.1051 83.0673 27.062 83.3159 26.9759C83.5678 26.8864 83.7849 26.7538 83.9672 26.5781C84.1494 26.3991 84.2903 26.1771 84.3897 25.9119L85.5233 26.2301C85.4039 26.6146 85.2034 26.9527 84.9217 27.2443C84.64 27.5327 84.292 27.758 83.8777 27.9205C83.4634 28.0795 82.9977 28.1591 82.4806 28.1591ZM88.0973 20.3636L89.9268 23.4858L91.7564 20.3636H93.1087L90.6428 24.1818L93.1087 28H91.7564L89.9268 25.0369L88.0973 28H86.745L89.1712 24.1818L86.745 20.3636H88.0973ZM98.1039 20.3636V21.358H94.1465V20.3636H98.1039ZM95.2999 18.5341H96.4732V25.8125C96.4732 26.1439 96.5212 26.3925 96.6174 26.5582C96.7168 26.7206 96.8427 26.83 96.9952 26.8864C97.151 26.9394 97.315 26.9659 97.4874 26.9659C97.6167 26.9659 97.7227 26.9593 97.8056 26.946C97.8884 26.9295 97.9547 26.9162 98.0044 26.9062L98.2431 27.9602C98.1635 27.9901 98.0525 28.0199 97.91 28.0497C97.7675 28.0829 97.5868 28.0994 97.3681 28.0994C97.0366 28.0994 96.7118 28.0282 96.3936 27.8857C96.0788 27.7431 95.8169 27.526 95.6081 27.2344C95.4026 26.9427 95.2999 26.5748 95.2999 26.1307V18.5341ZM107.127 20.3636V21.358H103.17V20.3636H107.127ZM104.323 18.5341H105.497V25.8125C105.497 26.1439 105.545 26.3925 105.641 26.5582C105.74 26.7206 105.866 26.83 106.019 26.8864C106.174 26.9394 106.338 26.9659 106.511 26.9659C106.64 26.9659 106.746 26.9593 106.829 26.946C106.912 26.9295 106.978 26.9162 107.028 26.9062L107.267 27.9602C107.187 27.9901 107.076 28.0199 106.933 28.0497C106.791 28.0829 106.61 28.0994 106.392 28.0994C106.06 28.0994 105.735 28.0282 105.417 27.8857C105.102 27.7431 104.84 27.526 104.632 27.2344C104.426 26.9427 104.323 26.5748 104.323 26.1307V18.5341ZM111.912 28.1591C111.223 28.1591 110.618 27.995 110.098 27.6669C109.581 27.3388 109.176 26.8797 108.885 26.2898C108.596 25.6998 108.452 25.0104 108.452 24.2216C108.452 23.4261 108.596 22.7318 108.885 22.1385C109.176 21.5452 109.581 21.0845 110.098 20.7564C110.618 20.4283 111.223 20.2642 111.912 20.2642C112.602 20.2642 113.205 20.4283 113.722 20.7564C114.242 21.0845 114.647 21.5452 114.935 22.1385C115.227 22.7318 115.373 23.4261 115.373 24.2216C115.373 25.0104 115.227 25.6998 114.935 26.2898C114.647 26.8797 114.242 27.3388 113.722 27.6669C113.205 27.995 112.602 28.1591 111.912 28.1591ZM111.912 27.1051C112.436 27.1051 112.867 26.9709 113.205 26.7024C113.543 26.4339 113.793 26.081 113.956 25.6435C114.118 25.206 114.199 24.732 114.199 24.2216C114.199 23.7112 114.118 23.2356 113.956 22.7947C113.793 22.3539 113.543 21.9976 113.205 21.7259C112.867 21.4541 112.436 21.3182 111.912 21.3182C111.389 21.3182 110.958 21.4541 110.62 21.7259C110.282 21.9976 110.032 22.3539 109.869 22.7947C109.707 23.2356 109.626 23.7112 109.626 24.2216C109.626 24.732 109.707 25.206 109.869 25.6435C110.032 26.081 110.282 26.4339 110.62 26.7024C110.958 26.9709 111.389 27.1051 111.912 27.1051ZM-61.642 34.8182H-60.2301L-57.4062 39.571H-57.2869L-54.4631 34.8182H-53.0511L-56.7301 40.804V45H-57.9631V40.804L-61.642 34.8182ZM-50.3665 45.179C-50.8504 45.179 -51.2895 45.0878 -51.6839 44.9055C-52.0784 44.7199 -52.3916 44.4531 -52.6236 44.1051C-52.8556 43.7538 -52.9716 43.3295 -52.9716 42.8324C-52.9716 42.3949 -52.8854 42.0402 -52.7131 41.7685C-52.5407 41.4934 -52.3104 41.2779 -52.022 41.1222C-51.7337 40.9664 -51.4155 40.8504 -51.0675 40.7741C-50.7161 40.6946 -50.3632 40.6316 -50.0085 40.5852C-49.5445 40.5256 -49.1683 40.4808 -48.88 40.451C-48.5883 40.4179 -48.3762 40.3632 -48.2436 40.2869C-48.1077 40.2107 -48.0398 40.0781 -48.0398 39.8892V39.8494C-48.0398 39.3589 -48.174 38.9777 -48.4425 38.706C-48.7076 38.4342 -49.1103 38.2983 -49.6506 38.2983C-50.2107 38.2983 -50.6499 38.4209 -50.968 38.6662C-51.2862 38.9115 -51.5099 39.1733 -51.6392 39.4517L-52.7528 39.054C-52.554 38.59 -52.2888 38.2287 -51.9574 37.9702C-51.6226 37.7083 -51.258 37.526 -50.8636 37.4233C-50.4659 37.3172 -50.0748 37.2642 -49.6903 37.2642C-49.4451 37.2642 -49.1634 37.294 -48.8452 37.3537C-48.5237 37.41 -48.2138 37.5277 -47.9155 37.7067C-47.6139 37.8857 -47.3636 38.1558 -47.1648 38.517C-46.9659 38.8783 -46.8665 39.3622 -46.8665 39.9688V45H-48.0398V43.9659H-48.0994C-48.179 44.1316 -48.3116 44.3089 -48.4972 44.4979C-48.6828 44.6868 -48.9297 44.8475 -49.2379 44.9801C-49.5462 45.1127 -49.9223 45.179 -50.3665 45.179ZM-50.1875 44.125C-49.7235 44.125 -49.3324 44.0339 -49.0142 43.8516C-48.6927 43.6693 -48.4508 43.4339 -48.2884 43.1456C-48.1226 42.8572 -48.0398 42.554 -48.0398 42.2358V41.1619C-48.0895 41.2216 -48.1989 41.2763 -48.3679 41.326C-48.5336 41.3724 -48.7259 41.4138 -48.9446 41.4503C-49.16 41.4834 -49.3705 41.5133 -49.576 41.5398C-49.7782 41.563 -49.9422 41.5829 -50.0682 41.5994C-50.3731 41.6392 -50.6581 41.7038 -50.9233 41.7933C-51.1851 41.8795 -51.3973 42.0104 -51.5597 42.1861C-51.7187 42.3584 -51.7983 42.5937 -51.7983 42.892C-51.7983 43.2997 -51.6475 43.608 -51.3459 43.8168C-51.041 44.0223 -50.6548 44.125 -50.1875 44.125ZM-43.6312 42.2159L-43.6511 40.7642H-43.4125L-40.0716 37.3636H-38.6199L-42.1795 40.9631H-42.2789L-43.6312 42.2159ZM-44.725 45V34.8182H-43.5517V45H-44.725ZM-39.8727 45L-42.8556 41.2216L-42.0204 40.4062L-38.3812 45H-39.8727ZM-31.3825 37.3636C-31.4421 36.8598 -31.6841 36.4688 -32.1083 36.1903C-32.5326 35.9119 -33.0529 35.7727 -33.6694 35.7727C-34.1201 35.7727 -34.5146 35.8456 -34.8526 35.9915C-35.1874 36.1373 -35.4492 36.3378 -35.6381 36.593C-35.8237 36.8482 -35.9165 37.1383 -35.9165 37.4631C-35.9165 37.7348 -35.8519 37.9685 -35.7227 38.1641C-35.5901 38.3563 -35.421 38.517 -35.2156 38.6463C-35.0101 38.7723 -34.7946 38.8767 -34.5692 38.9595C-34.3439 39.0391 -34.1367 39.1037 -33.9478 39.1534L-32.9137 39.4318C-32.6486 39.5014 -32.3536 39.5975 -32.0288 39.7202C-31.7006 39.8428 -31.3874 40.0102 -31.0891 40.2223C-30.7875 40.4311 -30.5389 40.6996 -30.3434 41.0277C-30.1478 41.3558 -30.0501 41.7585 -30.0501 42.2358C-30.0501 42.786 -30.1942 43.2831 -30.4826 43.7273C-30.7676 44.1714 -31.1853 44.5244 -31.7354 44.7862C-32.2823 45.0481 -32.9469 45.179 -33.729 45.179C-34.4582 45.179 -35.0896 45.0613 -35.6232 44.826C-36.1535 44.5907 -36.5711 44.2625 -36.8761 43.8416C-37.1777 43.4207 -37.3484 42.9318 -37.3881 42.375H-36.1154C-36.0823 42.7595 -35.953 43.0777 -35.7276 43.3295C-35.4989 43.5781 -35.2106 43.7637 -34.8626 43.8864C-34.5112 44.0057 -34.1334 44.0653 -33.729 44.0653C-33.2584 44.0653 -32.8358 43.9891 -32.4613 43.8366C-32.0868 43.6809 -31.7901 43.4654 -31.5714 43.1903C-31.3526 42.9119 -31.2433 42.5871 -31.2433 42.2159C-31.2433 41.8778 -31.3377 41.6027 -31.5266 41.3906C-31.7156 41.1785 -31.9641 41.0062 -32.2724 40.8736C-32.5806 40.741 -32.9137 40.625 -33.2717 40.5256L-34.5245 40.1676C-35.32 39.9389 -35.9497 39.6125 -36.4137 39.1882C-36.8777 38.764 -37.1097 38.2088 -37.1097 37.5227C-37.1097 36.9527 -36.9556 36.4555 -36.6474 36.0312C-36.3358 35.6037 -35.9182 35.2723 -35.3945 35.0369C-34.8675 34.7983 -34.2792 34.679 -33.6296 34.679C-32.9734 34.679 -32.39 34.7966 -31.8796 35.032C-31.3692 35.264 -30.9648 35.5821 -30.6665 35.9865C-30.3649 36.3909 -30.2058 36.8499 -30.1893 37.3636H-31.3825ZM-27.0087 40.4062V45H-28.182V34.8182H-27.0087V38.5568H-26.9093C-26.7303 38.1624 -26.4618 37.8492 -26.1039 37.6172C-25.7426 37.3819 -25.262 37.2642 -24.6621 37.2642C-24.1417 37.2642 -23.686 37.3686 -23.2949 37.5774C-22.9038 37.7829 -22.6006 38.0994 -22.3851 38.527C-22.1664 38.9512 -22.057 39.4915 -22.057 40.1477V45H-23.2303V40.2273C-23.2303 39.6207 -23.3877 39.1518 -23.7026 38.8203C-24.0141 38.4856 -24.4467 38.3182 -25.0002 38.3182C-25.3846 38.3182 -25.7293 38.3994 -26.0343 38.5618C-26.3359 38.7242 -26.5745 38.9612 -26.7502 39.2727C-26.9225 39.5843 -27.0087 39.9621 -27.0087 40.4062ZM-17.6634 45.179C-18.1473 45.179 -18.5864 45.0878 -18.9808 44.9055C-19.3752 44.7199 -19.6884 44.4531 -19.9205 44.1051C-20.1525 43.7538 -20.2685 43.3295 -20.2685 42.8324C-20.2685 42.3949 -20.1823 42.0402 -20.0099 41.7685C-19.8376 41.4934 -19.6072 41.2779 -19.3189 41.1222C-19.0305 40.9664 -18.7124 40.8504 -18.3643 40.7741C-18.013 40.6946 -17.66 40.6316 -17.3054 40.5852C-16.8414 40.5256 -16.4652 40.4808 -16.1768 40.451C-15.8852 40.4179 -15.6731 40.3632 -15.5405 40.2869C-15.4046 40.2107 -15.3366 40.0781 -15.3366 39.8892V39.8494C-15.3366 39.3589 -15.4709 38.9777 -15.7393 38.706C-16.0045 38.4342 -16.4072 38.2983 -16.9474 38.2983C-17.5076 38.2983 -17.9467 38.4209 -18.2649 38.6662C-18.5831 38.9115 -18.8068 39.1733 -18.9361 39.4517L-20.0497 39.054C-19.8509 38.59 -19.5857 38.2287 -19.2543 37.9702C-18.9195 37.7083 -18.5549 37.526 -18.1605 37.4233C-17.7628 37.3172 -17.3717 37.2642 -16.9872 37.2642C-16.742 37.2642 -16.4602 37.294 -16.142 37.3537C-15.8205 37.41 -15.5107 37.5277 -15.2124 37.7067C-14.9107 37.8857 -14.6605 38.1558 -14.4616 38.517C-14.2628 38.8783 -14.1634 39.3622 -14.1634 39.9688V45H-15.3366V43.9659H-15.3963C-15.4759 44.1316 -15.6084 44.3089 -15.794 44.4979C-15.9796 44.6868 -16.2266 44.8475 -16.5348 44.9801C-16.843 45.1127 -17.2192 45.179 -17.6634 45.179ZM-17.4844 44.125C-17.0204 44.125 -16.6293 44.0339 -16.3111 43.8516C-15.9896 43.6693 -15.7476 43.4339 -15.5852 43.1456C-15.4195 42.8572 -15.3366 42.554 -15.3366 42.2358V41.1619C-15.3864 41.2216 -15.4957 41.2763 -15.6648 41.326C-15.8305 41.3724 -16.0227 41.4138 -16.2415 41.4503C-16.4569 41.4834 -16.6674 41.5133 -16.8729 41.5398C-17.075 41.563 -17.2391 41.5829 -17.3651 41.5994C-17.67 41.6392 -17.955 41.7038 -18.2202 41.7933C-18.482 41.8795 -18.6941 42.0104 -18.8565 42.1861C-19.0156 42.3584 -19.0952 42.5937 -19.0952 42.892C-19.0952 43.2997 -18.9444 43.608 -18.6428 43.8168C-18.3378 44.0223 -17.9517 44.125 -17.4844 44.125ZM-6.05096 37.3636L-8.87482 45H-10.068L-12.8919 37.3636H-11.6191L-9.51119 43.4489H-9.43164L-7.32369 37.3636H-6.05096ZM-1.57404 45.1591C-2.30984 45.1591 -2.94454 44.9967 -3.47816 44.6719C-4.00846 44.3438 -4.41779 43.8864 -4.70614 43.2997C-4.99118 42.7098 -5.1337 42.0237 -5.1337 41.2415C-5.1337 40.4593 -4.99118 39.7699 -4.70614 39.1733C-4.41779 38.5734 -4.01675 38.1061 -3.50302 37.7713C-2.98597 37.4332 -2.38275 37.2642 -1.69336 37.2642C-1.29563 37.2642 -0.902876 37.3305 -0.515092 37.4631C-0.127308 37.5956 0.225675 37.8111 0.543857 38.1094C0.862039 38.4044 1.11559 38.7955 1.30451 39.2827C1.49343 39.7699 1.58789 40.3698 1.58789 41.0824V41.5795H-4.29847V40.5653H0.394709C0.394709 40.1345 0.308535 39.75 0.136186 39.4119C-0.0328478 39.0739 -0.274799 38.8071 -0.589666 38.6115C-0.901219 38.416 -1.26912 38.3182 -1.69336 38.3182C-2.16069 38.3182 -2.56504 38.4342 -2.90643 38.6662C-3.2445 38.8949 -3.50468 39.1932 -3.68697 39.5611C-3.86926 39.929 -3.9604 40.3234 -3.9604 40.7443V41.4205C-3.9604 41.9972 -3.86097 42.486 -3.66211 42.8871C-3.45993 43.2848 -3.17986 43.5881 -2.82191 43.7969C-2.46396 44.0024 -2.048 44.1051 -1.57404 44.1051C-1.2658 44.1051 -0.987393 44.062 -0.738814 43.9759C-0.48692 43.8864 -0.269827 43.7538 -0.0875353 43.5781C0.0947563 43.3991 0.235618 43.1771 0.33505 42.9119L1.46857 43.2301C1.34925 43.6146 1.14873 43.9527 0.86701 44.2443C0.585287 44.5327 0.237275 44.758 -0.177024 44.9205C-0.591323 45.0795 -1.057 45.1591 -1.57404 45.1591ZM3.37269 45V37.3636H4.50621V38.517H4.58576C4.72496 38.1392 4.97686 37.8326 5.34144 37.5973C5.70603 37.362 6.11701 37.2443 6.5744 37.2443C6.66057 37.2443 6.76829 37.246 6.89755 37.2493C7.02681 37.2526 7.12459 37.2576 7.19087 37.2642V38.4574C7.1511 38.4474 7.05996 38.4325 6.91744 38.4126C6.77823 38.3894 6.63074 38.3778 6.47496 38.3778C6.10375 38.3778 5.77231 38.4557 5.48065 38.6115C5.19229 38.764 4.9636 38.9761 4.79457 39.2479C4.62885 39.5163 4.54599 39.8229 4.54599 40.1676V45H3.37269ZM8.56179 45.0795C8.31652 45.0795 8.10606 44.9917 7.9304 44.8161C7.75473 44.6404 7.6669 44.4299 7.6669 44.1847C7.6669 43.9394 7.75473 43.7289 7.9304 43.5533C8.10606 43.3776 8.31652 43.2898 8.56179 43.2898C8.80705 43.2898 9.01752 43.3776 9.19318 43.5533C9.36884 43.7289 9.45668 43.9394 9.45668 44.1847C9.45668 44.3471 9.41525 44.4962 9.33239 44.6321C9.25284 44.768 9.14512 44.8774 9.00923 44.9602C8.87666 45.0398 8.72751 45.0795 8.56179 45.0795Z" fill="#727272"/>
            <circle cx="5.6" cy="1.6" r="1.6" fill="white"/>
            <circle cx="10.4008" cy="6.40005" r="1.6" fill="white"/>
            <path d="M1.30078 1.6001C1.02464 1.6001 0.800781 1.82396 0.800781 2.1001V4.13666C1.73294 4.46613 2.40078 5.35512 2.40078 6.4001C2.40078 7.44507 1.73294 8.33406 0.800781 8.66353V10.7001C0.800781 10.9762 1.02464 11.2001 1.30078 11.2001H9.90078C10.1769 11.2001 10.4008 10.9762 10.4008 10.7001V2.1001C10.4008 1.82396 10.1769 1.6001 9.90078 1.6001H1.30078Z" fill="#333333" stroke="white"/>
        </g>
    </g>
    <defs>
        <filter id="filter0_f_226_536" x="-421" y="-581" width="1575" height="1367" filterUnits="userSpaceOnUse" color-interpolation-filters="sRGB">
            <feFlood flood-opacity="0" result="BackgroundImageFix"/>
            <feBlend mode="normal" in="SourceGraphic" in2="BackgroundImageFix" result="shape"/>
            <feGaussianBlur stdDeviation="180" result="effect1_foregroundBlur_226_536"/>
        </filter>
        <linearGradient id="paint0_linear_226_536" x1="-395.167" y1="-219.319" x2="804.913" y2="812.11" gradientUnits="userSpaceOnUse">
            <stop stop-color="#FF9D3F"/>
            <stop offset="0.403862" stop-color="#F46772"/>
            <stop offset="0.692179" stop-color="#AF33E4"/>
            <stop offset="1" stop-color="#080808"/>
        </linearGradient>
        <clipPath id="clip0_226_536">
            <rect width="1728" height="1000" fill="white" transform="translate(-486 -495)"/>
        </clipPath>
        <clipPath id="clip1_226_536">
            <rect width="1728" height="1244" fill="white" transform="translate(-486 -495)"/>
        </clipPath>
        <clipPath id="clip2_226_536">
            <rect x="-94" y="-80" width="304" height="320" rx="16" fill="white"/>
        </clipPath>
    </defs>
</svg>
