<svg width="12" height="11" viewBox="0 0 12 11" fill="none" xmlns="http://www.w3.org/2000/svg">
<path fill-rule="evenodd" clip-rule="evenodd" d="M8.25684 10.9991C8.5 10.9991 8.69922 10.8114 8.69922 10.5833V8.30445C8.85059 7.07594 9.40918 7.44082 10.0664 7.82078C11.6553 8.73909 12.7109 6.32356 11.4268 5.57873C10.4189 4.99417 9.98242 5.99923 9.24414 5.89552C8.95898 5.85498 8.76074 5.56553 8.69824 5.12523V3.47904C8.69824 3.24994 8.49902 3.06326 8.25586 3.06326H6.22363C4.5459 2.86338 6.03516 1.99126 6.03516 1.17948C6.03613 0.527985 5.4082 0 4.63379 0C3.86035 0 3.15039 0.527985 3.15039 1.17948C3.15039 1.94506 4.69141 2.86338 2.99023 3.06326H0.442383C0.199219 3.06326 0 3.24994 0 3.47904V5.12145C0.129883 5.82198 0.633789 5.98414 1.2793 5.52216C1.49707 5.36565 1.86426 5.18368 2.12988 5.18368C2.82227 5.18368 3.38477 5.77295 3.38477 6.49987C3.38477 7.22679 2.82324 7.97634 2.12988 7.97634C1.88281 7.97634 1.65234 7.90092 1.45703 7.76986C1.45703 7.82549 0.246094 6.74689 0 8.06686V10.5852C0 10.8143 0.199219 11.0009 0.442383 11.0009C1.80664 11.0009 3.16895 11.0009 4.53223 11C4.58594 10.7596 4.41113 10.4843 4.24707 10.2457C2.95605 8.36668 7.97852 8.17905 6.6875 10.3042C6.62402 10.4088 6.56055 10.5107 6.51172 10.6097C6.4502 10.7332 6.40918 10.884 6.41797 11L8.25684 10.9991Z" fill="white"/>
</svg>
