<svg width="16" height="15" viewBox="0 0 16 15" fill="none" xmlns="http://www.w3.org/2000/svg">
<path d="M8 14.75C5.48438 14.75 3.1875 13.4375 1.92969 11.25C0.671875 9.08984 0.671875 6.4375 1.92969 4.25C3.1875 2.08984 5.48438 0.75 8 0.75C10.4883 0.75 12.7852 2.08984 14.043 4.25C15.3008 6.4375 15.3008 9.08984 14.043 11.25C12.7852 13.4375 10.4883 14.75 8 14.75ZM5.62109 5.28906V5.31641C5.51172 5.64453 5.67578 6.02734 6.03125 6.16406C6.35938 6.27344 6.74219 6.10938 6.85156 5.75391L6.87891 5.72656C6.90625 5.64453 6.98828 5.58984 7.07031 5.58984H8.65625C8.90234 5.58984 9.09375 5.75391 9.09375 6C9.09375 6.13672 9.01172 6.27344 8.875 6.35547L7.67188 7.03906C7.45312 7.14844 7.34375 7.36719 7.34375 7.61328V7.96875C7.34375 8.35156 7.61719 8.625 8 8.625C8.35547 8.625 8.62891 8.35156 8.65625 7.99609L9.53125 7.47656C10.0508 7.17578 10.4062 6.60156 10.4062 6C10.4062 5.04297 9.61328 4.25 8.65625 4.25H7.07031C6.41406 4.25 5.83984 4.66016 5.62109 5.28906ZM7.125 10.375C7.125 10.8672 7.50781 11.25 8 11.25C8.46484 11.25 8.875 10.8672 8.875 10.375C8.875 9.91016 8.46484 9.5 8 9.5C7.50781 9.5 7.125 9.91016 7.125 10.375Z" fill="#FDFDFD"/>
</svg>
