<svg width="67" height="51" viewBox="0 0 67 51" fill="none" xmlns="http://www.w3.org/2000/svg">
<path fill-rule="evenodd" clip-rule="evenodd" d="M22.8906 13.3545C22.5684 13.4017 22.2458 13.4467 21.9236 13.4916L21.6624 13.5281C20.9637 13.6278 20.2634 13.7239 19.5597 13.7534C18.8605 13.7863 18.1595 13.7803 17.4586 13.7741C17.2428 13.7723 17.0268 13.7704 16.8112 13.7697C15.1433 13.7609 13.5045 13.511 11.9045 12.9555C10.4977 12.468 9.21287 11.7435 8.02277 10.7659C6.99105 9.91681 6.1439 8.89694 5.43519 7.78527C4.21368 5.86335 3.39038 3.73874 2.97183 1.45933C2.9369 1.27759 2.87276 1.10117 2.80863 0.924224C2.77656 0.836216 2.74463 0.748065 2.71608 0.659077C2.68102 0.651361 2.64256 0.645267 2.60424 0.63916C2.54558 0.762018 2.48562 0.884104 2.42553 1.0061C2.28176 1.29846 2.13811 1.59034 2.01441 1.8912C0.79042 4.84886 0.42257 7.97671 0.81349 11.2092C0.926895 12.1775 1.22344 13.1348 1.51647 14.0808C1.5574 14.213 1.59833 14.345 1.63861 14.4767C1.94663 15.4971 2.504 16.3792 3.06803 17.2718L3.15497 17.4094C4.10483 18.9105 5.26912 20.1702 6.57797 21.2665C7.55455 22.0819 8.62603 22.7729 9.69099 23.4597C9.81 23.5366 9.93005 23.614 10.0489 23.6909C11.4479 24.6005 12.9527 25.2728 14.4765 25.8927C14.685 25.9776 14.8938 26.0609 15.103 26.1424L15.118 35.5219L20.3579 31.4532L25.4335 48.095C25.5699 48.5418 25.9335 48.8818 26.3874 48.9867L34.3025 50.8155L42.2117 48.9867C42.6656 48.8818 43.0291 48.5418 43.1654 48.0951L48.2211 31.5186L53.3733 35.5219L53.3892 25.5522C54.6313 25.0234 55.85 24.437 56.9976 23.6909C57.1164 23.6138 57.2357 23.5369 57.355 23.4601C58.4198 22.7733 59.4919 22.0819 60.4685 21.2665C61.7772 20.1702 62.9415 18.9105 63.8914 17.4094L63.9783 17.2718C64.5424 16.3792 65.0997 15.4971 65.4079 14.4767C65.4479 14.3458 65.4884 14.2147 65.5291 14.0834L65.5299 14.0808C65.8229 13.1348 66.1195 12.1775 66.233 11.2092C66.6238 7.97671 66.2561 4.84886 65.032 1.8912C64.9083 1.59034 64.7647 1.29847 64.6208 1.00612C64.5609 0.884117 64.5008 0.762031 64.4421 0.63916C64.4038 0.645267 64.3655 0.651361 64.3303 0.659077C64.3019 0.748 64.2698 0.836085 64.2379 0.924041C64.1736 1.10097 64.1095 1.2776 64.0747 1.45933C63.656 3.73874 62.8327 5.86335 61.6113 7.78527C60.9025 8.89694 60.0553 9.91681 59.0237 10.7659C57.8335 11.7435 56.5486 12.468 55.142 12.9555C53.5418 13.511 51.9031 13.7609 50.2351 13.7697C50.0197 13.7704 49.8039 13.7723 49.5882 13.7741C48.8873 13.7803 48.1859 13.7863 47.4868 13.7534C47.3618 13.7482 47.2368 13.7408 47.1121 13.7317L34.3025 10.2834L22.8906 13.3545Z" fill="#FFFFFF"/>
</svg>
